<?xml version="1.0" encoding="UTF-8" standalone="no"?>
<!-- Converted by extension-curve -->

<svg viewBox="0 0 311.79556 451.09075" width="311.79556mm" height="451.09073mm" version="1.1" id="svg45"
  xmlns="http://www.w3.org/2000/svg" xmlns:svg="http://www.w3.org/2000/svg">

  <defs id="defs7">
    <filter id="inner-shadow" x="-50%" y="-50%" width="200%" height="200%">
      <feFlood flood-color="#000000" flood-opacity="0.8" result="flood" />
      <feComposite operator="out" in="flood" in2="SourceGraphic" result="cutout" />
      <feGaussianBlur in="cutout" stdDeviation="3" result="blur" />
      <feOffset dx="1" dy="2" in="blur" result="offsetBlur" />
      <feComposite operator="atop" in="offsetBlur" in2="SourceGraphic" />
    </filter>
  </defs>

  <g style="display:inline;opacity:1;mix-blend-mode:normal" transform="translate(154.47846,224.32737)" id="g1"
    filter="url(#inner-shadow)">
    <g style="display:inline;opacity:1;mix-blend-mode:normal" transform="rotate(97.779612,-25.481896,140.9273)"
      id="g26">
      <path id="path17"
        style="display:inline;opacity:1;mix-blend-mode:normal;fill:#3e3e3e;fill-opacity:1;fill-rule:nonzero;stroke:none;stroke-width:3.47142;stroke-linecap:butt;stroke-linejoin:round;stroke-dasharray:none;stroke-opacity:1"
        d="m -46.290844,-36.521931 c 0,0 0.09317,0.03077 0.09317,0.03077 0,0 0.0096,0.0032 0.0096,0.0032 -0.318509,0.964427 -0.6398,2.251413 -0.88127,3.810992 -0.203511,1.314411 -0.355447,2.863929 -0.36873,4.496223 -0.01191,1.463695 0.08772,3.051736 0.391404,4.567847 0.144168,0.719754 0.337535,1.439273 0.594875,2.128325 0.249646,0.668448 0.565542,1.324442 0.966995,1.928547 0.700193,1.054153 1.605521,1.864895 2.666402,2.35388 1.024813,0.47236 2.137901,0.616251 3.219941,0.434133 1.054499,-0.177483 2.047417,-0.659294 2.871993,-1.39335 0.817331,-0.727608 1.457584,-1.692104 1.839933,-2.831417 0.266526,-0.791835 0.63095,-1.914657 1.015585,-3.200843 0.388744,-1.299922 0.79567,-2.758426 1.144628,-4.212537 0.355326,-1.480649 0.652522,-2.964391 0.810762,-4.288608 0.08096,-0.677525 0.127952,-1.332509 0.124171,-1.938151 -0.0038,-0.60743 -0.05859,-1.226896 -0.215334,-1.79502 -0.25316,-0.915419 -0.636355,-1.716805 -1.124288,-2.400938 -0.502636,-0.704748 -1.104059,-1.267775 -1.759287,-1.699339 -0.677079,-0.445955 -1.401738,-0.745371 -2.12636,-0.925166 -0.755299,-0.187407 -1.515121,-0.246309 -2.242593,-0.206925 -1.581591,0.08562 -3.043642,0.63283 -4.204218,1.43614 -0.653725,0.452485 -1.2165,0.987866 -1.67698,1.581663 -0.513586,0.662277 -0.888446,1.381873 -1.134183,2.125987 0,0 -0.01619,-0.0053 -0.01619,-0.0053 z m 3.500497,1.156037 c 0,0 -0.01619,-0.0053 -0.01619,-0.0053 0.118123,-0.357684 0.298595,-0.706879 0.552346,-1.034933 0.228582,-0.295516 0.51858,-0.575518 0.869389,-0.819387 0.632957,-0.440009 1.449734,-0.749721 2.326234,-0.799865 0.397805,-0.02276 0.794204,0.0094 1.170565,0.10138 0.359628,0.08788 0.69904,0.229831 1.004807,0.429514 0.293423,0.19162 0.567664,0.443991 0.80443,0.773341 0.230013,0.319957 0.438237,0.731607 0.586526,1.261394 0.04298,0.150251 0.0854,0.424866 0.09003,0.855875 0.0044,0.412108 -0.02592,0.909931 -0.09278,1.48747 -0.131086,1.132282 -0.390143,2.467763 -0.723729,3.877954 -0.325015,1.373959 -0.708587,2.76782 -1.079976,4.026475 -0.366854,1.24329 -0.714362,2.32941 -0.966331,3.093029 -0.189195,0.575269 -0.489308,1.009884 -0.825556,1.313771 -0.341136,0.308304 -0.725489,0.488634 -1.101851,0.555203 -0.380991,0.06739 -0.77622,0.02306 -1.159684,-0.150326 -0.398025,-0.179967 -0.826911,-0.519427 -1.2164,-1.099919 -0.226763,-0.338161 -0.430476,-0.744002 -0.60749,-1.213044 -0.181999,-0.482249 -0.330416,-1.01705 -0.446929,-1.590024 -0.247173,-1.215519 -0.340978,-2.55233 -0.333302,-3.852761 0.0085,-1.440668 0.14062,-2.820491 0.320089,-3.991987 0.213337,-1.392579 0.491726,-2.49069 0.743061,-3.251717 0,0 0.0096,0.0032 0.0096,0.0032 0,0 0.09317,0.03077 0.09317,0.03077 z M -44.5406,-35.9439 c -1.2885,3.9015 -1.967,11.6945 0.5139,15.4157 2.2224,3.3338 6.3106,2.3932 7.4509,-1.0277 1.0331,-3.0992 3.6335,-11.482 2.8263,-14.388 -1.5856,-5.708 -9.2425,-4.6893 -10.7911,0 z"
        transform="translate(8.2394646e-6,-1.0170929e-5)" />
      <path id="path18"
        style="display:inline;opacity:1;mix-blend-mode:normal;fill:#3e3e3e;fill-opacity:1;fill-rule:nonzero;stroke:none;stroke-width:3.47142;stroke-linecap:butt;stroke-linejoin:round;stroke-dasharray:none;stroke-opacity:1"
        d="m -0.28375385,-33.910025 c 0.0286767,0.258912 0.0686187,0.515401 0.12107822,0.767892 0.10301903,0.495836 0.25838881,0.993988 0.48637561,1.467994 0.22579607,0.469451 0.52677307,0.922556 0.91869712,1.3187 0.3918074,0.396025 0.859793,0.720649 1.4011657,0.952364 0.5349922,0.228984 1.1130684,0.354873 1.720411,0.387705 0.6013266,0.03251 1.2301491,-0.02568 1.8809785,-0.162577 0.6492329,-0.136554 1.332738,-0.353728 2.0509418,-0.647904 1.0436605,-0.426604 1.9319519,-1.091463 2.6659719,-1.872591 0.739935,-0.787421 1.334636,-1.704901 1.795259,-2.660636 0.954552,-1.980571 1.379528,-4.212274 1.30946,-6.182109 -0.03773,-1.060715 -0.218611,-2.079546 -0.558235,-2.994186 -0.366306,-0.986495 -0.922383,-1.865617 -1.691395,-2.53843 -0.41247,-0.360873 -0.871569,-0.648948 -1.368327,-0.860882 -0.5286816,-0.225555 -1.0790898,-0.35602 -1.6343486,-0.406765 -1.2620557,-0.115336 -2.5132016,0.180467 -3.6352701,0.630173 l 0.00633,0.01582 0.030089,0.07517 0.00389,0.0094 c -0.4267466,0.171026 -0.8248405,0.422615 -1.1948375,0.729659 -0.3330585,0.276391 -0.6532994,0.606098 -0.9602431,0.980818 -0.5474242,0.6683 -1.077353,1.511691 -1.5587686,2.494284 -0.4335632,0.884924 -0.83461983,1.898214 -1.15372664,2.981374 -0.29610555,1.005086 -0.52773698,2.091005 -0.63294787,3.174137 -0.0744616,0.766572 -0.088582,1.563873 -0.002552,2.34061 z"
        transform="translate(8.2394646e-6,-1.0170929e-5)" />
      <path id="path20"
        style="display:inline;opacity:1;mix-blend-mode:normal;fill:#3e3e3e;fill-opacity:1;fill-rule:nonzero;stroke:none;stroke-width:3.47142;stroke-linecap:butt;stroke-linejoin:round;stroke-dasharray:none;stroke-opacity:1"
        d="m 18.720751,-29.769899 c 0.08192,0.76137 0.311099,1.543553 0.772889,2.25188 0.225556,0.345974 0.503472,0.667487 0.837495,0.949574 0.329893,0.278598 0.704165,0.509814 1.118716,0.686879 0.819199,0.349901 1.745936,0.468659 2.73876,0.38575 0.978627,-0.08172 2.044446,-0.360357 3.194272,-0.830706 2.224817,-0.909773 3.837842,-2.343659 4.823777,-3.944885 0.503717,-0.818071 0.842042,-1.677273 1.015245,-2.529034 0.179048,-0.880513 0.182992,-1.761391 0.0029,-2.586313 -0.190336,-0.871923 -0.584074,-1.67023 -1.173752,-2.322811 -0.637456,-0.705455 -1.446915,-1.179551 -2.336618,-1.431663 -0.977938,-0.277114 -2.006267,-0.27603 -3.000218,-0.104372 -1.174071,0.202765 -2.328369,0.647461 -3.396594,1.193713 l 0.0078,0.0151 0.03646,0.07221 0.0048,0.0087 c -0.72821,0.37238 -1.455129,0.887625 -2.126815,1.569965 -0.565836,0.574811 -1.07887,1.25509 -1.498817,2.024509 -0.376583,0.689967 -0.678976,1.453939 -0.86273,2.25576 -0.170165,0.742525 -0.243098,1.5411 -0.157604,2.335715 z"
        transform="translate(8.2394646e-6,-1.0170929e-5)" />
      <path id="path22"
        style="display:inline;opacity:1;mix-blend-mode:normal;fill:#3e3e3e;fill-opacity:1;fill-rule:nonzero;stroke:none;stroke-width:3.47142;stroke-linecap:butt;stroke-linejoin:round;stroke-dasharray:none;stroke-opacity:1"
        d="m 29.853594,19.000488 c 0.02699,0.16332 0.06518,0.328244 0.116261,0.492121 0.113582,0.364404 0.29035,0.716447 0.547592,1.030383 0.295225,0.36029 0.650777,0.614564 1.017477,0.785726 l -0.0044,0.0095 c 7e-6,3e-6 -0.0343,0.07353 -0.03429,0.07353 l -0.0073,0.01508 c 1.5344,0.716162 3.123613,1.152214 4.694024,1.125762 0.70856,-0.01193 1.402308,-0.118469 2.070107,-0.328195 0.633431,-0.198932 1.227519,-0.486163 1.774279,-0.855763 1.027739,-0.694734 1.839453,-1.646567 2.433339,-2.743116 0.551535,-1.018356 0.91642,-2.163067 1.090774,-3.335262 C 43.716064,14.163103 43.714552,13.00133 43.515,11.900158 43.41815,11.36574 43.272448,10.834331 43.069095,10.327537 42.869789,9.8308646 42.609625,9.3437997 42.274863,8.9005588 41.944714,8.4634251 41.535469,8.0603125 41.036911,7.7417844 40.541465,7.4252451 39.976745,7.2048117 39.35554,7.1129985 38.744346,7.0226645 38.116597,7.0622949 37.488069,7.2179226 36.870166,7.3709204 36.254907,7.6349387 35.644623,7.9949908 35.063786,8.3408273 34.486399,8.780634 33.940669,9.2776956 33.403202,9.7672318 32.884522,10.32325 32.414827,10.917331 c -0.46934,0.593633 -0.895585,1.233444 -1.242582,1.891969 -0.35196,0.667943 -0.633501,1.376343 -0.787782,2.094267 -0.06332,0.305268 -0.174614,0.731558 -0.281105,1.187412 -0.11335,0.485213 -0.223496,1.016532 -0.275778,1.547085 -0.02822,0.286354 -0.04026,0.582053 -0.02496,0.878596 0.0082,0.158717 0.02399,0.320509 0.05098,0.483828 z"
        transform="translate(8.2394646e-6,-1.0170929e-5)" />
    </g>
    <g style="display:inline;opacity:1;mix-blend-mode:normal" transform="rotate(45.64836,166.02238,-227.26639)"
      id="g39">
      <path id="path31"
        style="display:inline;opacity:1;mix-blend-mode:normal;fill:#3e3e3e;fill-opacity:1;fill-rule:nonzero;stroke:none;stroke-width:3.47142;stroke-linecap:butt;stroke-linejoin:round;stroke-dasharray:none;stroke-opacity:1"
        d="m 3.9991341,52.698228 c -0.3506911,0.385144 -0.6799668,0.788878 -0.9803156,1.206783 -0.5548228,0.77198 -1.0293099,1.619282 -1.3286494,2.491562 -0.1446594,0.421539 -0.2531139,0.863383 -0.3045098,1.314612 -0.050347,0.442021 -0.04751,0.908195 0.041527,1.376839 0.088267,0.464593 0.2605992,0.927898 0.541215,1.357298 0.27798,0.425367 0.6417464,0.785307 1.0758849,1.070597 0.425826,0.279827 0.9014757,0.476087 1.4060646,0.603494 0.4993479,0.126082 1.0355871,0.187209 1.6009498,0.193467 1.1166042,0.01236 2.4164958,-0.188248 3.901511,-0.59851 1.1442854,-0.315619 2.2512054,-0.791393 3.2800574,-1.36071 1.040265,-0.575633 2.01269,-1.25346 2.880623,-1.97596 0.886262,-0.737758 1.673215,-1.530216 2.324832,-2.328524 0.670743,-0.821739 1.219237,-1.675224 1.587085,-2.517143 0.191351,-0.437958 0.34049,-0.888724 0.429148,-1.344526 0.0913,-0.469366 0.121618,-0.961927 0.05331,-1.456846 -0.07175,-0.519847 -0.250409,-1.025801 -0.55506,-1.482849 -0.317594,-0.476465 -0.734426,-0.843508 -1.198789,-1.113423 -0.481463,-0.279855 -1.006113,-0.451461 -1.529372,-0.552765 -0.558149,-0.108059 -1.147925,-0.142481 -1.744906,-0.126792 -1.360162,0.03575 -2.889033,0.334439 -4.422643,0.757523 l -0.0046,-0.01603 0.0042,0.0164 0.02172,0.07832 C 9.1400763,48.82581 7.0166645,49.897011 5.1074719,51.60218 4.7218585,51.946585 4.3497896,52.313081 3.9990985,52.698226 Z" />
      <path id="path34"
        style="display:inline;opacity:1;mix-blend-mode:normal;fill:#3e3e3e;fill-opacity:1;fill-rule:nonzero;stroke:none;stroke-width:3.47142;stroke-linecap:butt;stroke-linejoin:round;stroke-dasharray:none;stroke-opacity:1"
        d="m -30.608322,-8.2292873 c 0,0 0.0212,-0.07825 0.0212,-0.07825 0,0 0.0026,-0.00972 0.0026,-0.00972 0.498776,0.1351551 1.246237,0.3159938 2.219089,0.5173293 0.853157,0.1765643 1.924562,0.3779303 3.139168,0.5676139 2.100426,0.3280208 4.887844,0.6610831 7.609711,0.6779684 1.257261,0.0078 2.548096,-0.051516 3.767009,-0.225707 1.160654,-0.1658651 2.32722,-0.4456503 3.354843,-0.9166981 0.505923,-0.2319083 0.9969834,-0.5186863 1.4422342,-0.8762361 0.4409356,-0.3540851 0.8397483,-0.7800199 1.1579034,-1.2893288 0.3158222,-0.5055753 0.537485,-1.0701423 0.6501202,-1.6868013 0.1108091,-0.606667 0.1115885,-1.238149 0.015341,-1.886011 -0.1967019,-1.323718 -0.6630764,-2.525048 -1.353578,-3.589908 -0.6781101,-1.045752 -1.5542368,-1.932435 -2.5555268,-2.671009 -0.990611,-0.730696 -2.106923,-1.319024 -3.288253,-1.779567 -1.176605,-0.458702 -2.427943,-0.794666 -3.702823,-1.018071 -2.551417,-0.447098 -5.235595,-0.450339 -7.678514,-0.05442 -1.237571,0.20057 -2.426484,0.505616 -3.517451,0.915793 -1.104286,0.415186 -2.128137,0.945566 -3.006012,1.601706 -1.097546,0.818457 -1.887083,1.844289 -2.380121,2.925481 -0.52713,1.155951 -0.714864,2.369794 -0.604982,3.50369 0.123741,1.276919 0.61826,2.416761 1.374941,3.320846 0.924063,1.1040744 2.133652,1.7439419 3.328587,2.0677517 0,0 0.0045,-0.016453 0.0045,-0.016453 z m 0.955263,-3.5252207 c 0,0 0.0045,-0.01645 0.0045,-0.01645 -0.629695,-0.170638 -1.128061,-0.465856 -1.475167,-0.875659 -0.283081,-0.334212 -0.48943,-0.775003 -0.54643,-1.31717 -0.0513,-0.487977 0.02104,-1.058614 0.279508,-1.638211 0.23993,-0.538026 0.639905,-1.07956 1.233718,-1.529596 0.550242,-0.414967 1.256665,-0.79736 2.108523,-1.121224 0.837489,-0.318402 1.790045,-0.570421 2.822238,-0.741266 2.048718,-0.339097 4.329304,-0.344559 6.484583,0.02587 1.070563,0.183997 2.091747,0.45764 3.024728,0.817673 0.937985,0.361963 1.77049,0.804874 2.472731,1.318834 0.707269,0.517639 1.272931,1.100107 1.690956,1.739245 0.421264,0.644089 0.706366,1.366094 0.830477,2.18138 0.04804,0.314079 0.03927,0.552997 0.0075,0.73325 -0.03154,0.179054 -0.08998,0.325348 -0.169109,0.454053 -0.08184,0.133117 -0.200856,0.27144 -0.374189,0.412172 -0.177878,0.144423 -0.409601,0.288447 -0.704171,0.424945 -0.613575,0.284318 -1.420725,0.499919 -2.386752,0.640872 -0.99753,0.14555 -2.106412,0.203438 -3.249345,0.199064 -2.480285,-0.0095 -5.080085,-0.310842 -7.093896,-0.621653 -1.1534,-0.178015 -2.168716,-0.367229 -2.971382,-0.532156 -0.9197,-0.188975 -1.596926,-0.353299 -2.012854,-0.466004 0,0 0.0026,-0.0097 0.0026,-0.0097 0,0 0.0212,-0.07825 0.0212,-0.07825 z M -30.1307,-9.9919 c 4.0398,1.09468 22.3034,4.47602 21.1548,-3.1812 -1.2936,-8.6243 -16.5091,-9.7273 -22.2682,-5.408 -3.302,2.4765 -3.0669,7.4564 1.1134,8.5892 z" />
      <path id="path36"
        style="display:inline;opacity:1;mix-blend-mode:normal;fill:#3e3e3e;fill-opacity:1;fill-rule:nonzero;stroke:none;stroke-width:3.47142;stroke-linecap:butt;stroke-linejoin:round;stroke-dasharray:none;stroke-opacity:1"
        d="m -8.3994473,-38.317798 c 0,0 0.073267,-0.03471 0.073267,-0.03471 0,0 0.0091,-0.0043 0.0091,-0.0043 0.221724,0.468055 0.5219373,0.935187 0.8947857,1.400932 0.3356543,0.419284 0.7343789,0.842626 1.1941129,1.267088 0.8214149,0.758394 1.8514215,1.532322 3.0539179,2.272019 1.0807264,0.664791 2.30689684,1.304893 3.60332635,1.850266 1.20214945,0.505712 2.48584305,0.938366 3.74665735,1.211368 1.1849254,0.256571 2.430887,0.389748 3.5820648,0.253194 0.566966,-0.06725 1.1437579,-0.203741 1.6893731,-0.446846 0.5436455,-0.242228 1.0595182,-0.592247 1.4880002,-1.079665 0.426691,-0.485381 0.727429,-1.062696 0.898463,-1.707873 0.167571,-0.632115 0.205167,-1.302553 0.141497,-2.001718 -0.06302,-0.691988 -0.227385,-1.427868 -0.48215,-2.205664 -0.254617,-0.777344 -0.605487,-1.614626 -1.054064,-2.515005 -0.5086173,-1.023675 -1.2707723,-1.898586 -2.1333324,-2.629026 -0.8738397,-0.739991 -1.8861222,-1.362121 -2.9393008,-1.868814 -1.0785626,-0.518905 -2.2223513,-0.927656 -3.3543712,-1.224427 -1.17182278,-0.307206 -2.34364077,-0.497948 -3.4500592,-0.567858 -1.1601314,-0.0733 -2.2708699,-0.01547 -3.2684867,0.192388 -0.5260509,0.109606 -1.0303698,0.262894 -1.5004825,0.466918 -0.4909265,0.213057 -0.9505301,0.484094 -1.3577982,0.822902 -0.4315677,0.359023 -0.7937173,0.785546 -1.0664606,1.276735 -0.2910428,0.524146 -0.4594793,1.084346 -0.5250459,1.654433 -0.070425,0.61233 -0.020413,1.217094 0.1019652,1.790739 0.1357416,0.636285 0.3644903,1.253456 0.6396164,1.834237 0,0 0.015405,-0.0073 0.015405,-0.0073 z m 3.300732,-1.563609 c 0,0 0.015405,-0.0073 0.015405,-0.0073 -0.1849792,-0.390484 -0.3043523,-0.733891 -0.3675297,-1.027148 -0.056482,-0.262177 -0.062791,-0.459711 -0.04716,-0.60287 0.013855,-0.126889 0.045418,-0.218314 0.084435,-0.290449 0.037064,-0.06853 0.096874,-0.149276 0.2022108,-0.238475 0.1026292,-0.08691 0.2534269,-0.185694 0.4706448,-0.281684 0.2085786,-0.09217 0.4695161,-0.177747 0.7883234,-0.2461 0.6115496,-0.131118 1.3854636,-0.187769 2.2925318,-0.135147 0.85801976,0.04978 1.79850755,0.195551 2.7594082,0.442259 0.9281751,0.238307 1.8534689,0.565364 2.7082256,0.970928 0.8392872,0.398224 1.5826959,0.859008 2.1810948,1.35936 0.5949314,0.497453 1.0066992,1.000413 1.2495426,1.479558 0.3904109,0.777581 0.6716614,1.451951 0.8642552,2.031839 0.1935561,0.582785 0.2911098,1.050818 0.326835,1.418798 0.035532,0.365988 0.00736,0.614745 -0.031621,0.768673 -0.037136,0.146642 -0.087404,0.22681 -0.129521,0.276751 -0.045488,0.05394 -0.1229382,0.12116 -0.2676138,0.18751 -0.1517311,0.06959 -0.369145,0.133823 -0.6666372,0.171192 -0.6247835,0.07848 -1.4520143,0.02053 -2.4221985,-0.184895 -1.0056322,-0.212928 -2.0815207,-0.565992 -3.1323674,-1.003527 -1.12782068,-0.469585 -2.19709493,-1.023508 -3.1325695,-1.594939 -1.0439447,-0.63769 -1.8891802,-1.276565 -2.520969,-1.857 -0.3519415,-0.323334 -0.6281651,-0.619586 -0.8398593,-0.883066 -0.236083,-0.293835 -0.3810172,-0.533248 -0.4672319,-0.715245 0,0 0.0091,-0.0043 0.0091,-0.0043 0,0 0.073267,-0.03471 0.073267,-0.03471 z M -6.74908,-39.0996 c 2.623,5.5371 22.29548,13.2565 15.58774,-0.159 -2.99867,-5.9973 -19.50586,-8.112 -15.58774,0.159 z" />
      <path id="path38"
        style="display:inline;opacity:1;mix-blend-mode:normal;fill:#3e3e3e;fill-opacity:1;fill-rule:nonzero;stroke:none;stroke-width:3.47142;stroke-linecap:butt;stroke-linejoin:round;stroke-dasharray:none;stroke-opacity:1"
        d="m 18.813769,-60.906614 c 0,0 0.07736,0.07563 0.07736,0.07563 0,0 -0.0072,-0.007 -0.0072,-0.007 -0.345897,0.353826 -0.591687,0.786094 -0.730461,1.269245 -0.122105,0.425119 -0.154086,0.862746 -0.125797,1.291719 0.02608,0.395498 0.104221,0.797585 0.221531,1.199429 0.110407,0.378197 0.258634,0.766797 0.44019,1.161616 0.336925,0.732687 0.800693,1.512357 1.375959,2.298736 0.53585,0.7325 1.177281,1.482396 1.904561,2.194811 0.690851,0.67673 1.470471,1.330443 2.31213,1.893448 0.811093,0.542558 1.704438,1.017228 2.645855,1.333911 0.927535,0.312014 1.926558,0.48086 2.955735,0.381334 0.511556,-0.04947 1.023314,-0.16541 1.524538,-0.359939 0.50042,-0.194217 0.977282,-0.46173 1.423553,-0.803642 0.531336,-0.407359 0.989668,-0.850498 1.364026,-1.332637 0.376779,-0.485258 0.666055,-1.007125 0.855883,-1.561554 0.191309,-0.558751 0.273186,-1.126253 0.257554,-1.68813 -0.01568,-0.563546 -0.128728,-1.101499 -0.307296,-1.603646 -0.359262,-1.010273 -0.991,-1.89885 -1.701579,-2.645914 -0.740942,-0.778985 -1.621606,-1.461434 -2.531381,-2.034748 -0.960345,-0.605182 -1.981063,-1.10677 -2.980214,-1.494817 -1.074805,-0.417429 -2.138479,-0.709377 -3.130469,-0.870061 -1.099375,-0.178078 -2.135045,-0.199554 -3.058508,-0.04377 -0.518941,0.08755 -1.009109,0.232096 -1.459872,0.440673 -0.504708,0.233537 -0.946179,0.541094 -1.313924,0.917271 0,0 -0.01219,-0.01192 -0.01219,-0.01192 z m 2.636076,2.577014 c 0,0 -0.01219,-0.01192 -0.01219,-0.01192 0.03833,-0.03921 0.108285,-0.09726 0.237429,-0.157432 0.119095,-0.05549 0.29226,-0.114296 0.5351,-0.15601 0.441935,-0.07592 1.065098,-0.08598 1.870646,0.04181 0.718395,0.113963 1.536808,0.33118 2.398161,0.662236 0.799944,0.307454 1.612441,0.704155 2.364552,1.173977 0.718089,0.448569 1.35233,0.946124 1.846177,1.460312 0.482903,0.502796 0.781408,0.969227 0.925423,1.365181 0.06868,0.188845 0.0996,0.353996 0.104952,0.498465 0.0052,0.140771 -0.01296,0.280527 -0.06159,0.426656 -0.04891,0.14697 -0.136426,0.323531 -0.292571,0.527125 -0.157219,0.204995 -0.385161,0.438633 -0.711663,0.691161 -0.181888,0.141268 -0.362918,0.24236 -0.542609,0.313663 -0.180583,0.07166 -0.372218,0.118128 -0.577956,0.13953 -0.419041,0.04359 -0.914704,-0.01571 -1.482553,-0.203156 -0.579665,-0.191343 -1.193249,-0.502878 -1.810698,-0.911662 -0.636129,-0.42115 -1.250103,-0.928002 -1.811318,-1.473017 -0.58953,-0.572513 -1.107656,-1.174053 -1.534418,-1.752361 -0.460424,-0.623923 -0.800137,-1.200706 -1.027187,-1.688955 -0.121559,-0.2614 -0.206612,-0.488191 -0.263143,-0.678614 -0.06062,-0.204197 -0.08413,-0.351963 -0.09108,-0.448361 -0.0073,-0.101349 0.0057,-0.128108 -0.0038,-0.09611 -0.01352,0.04576 -0.05138,0.128618 -0.129866,0.208904 -4e-6,3e-6 -0.0072,-0.007 -0.0072,-0.007 0,0 0.07736,0.07563 0.07736,0.07563 z M 20.1318,-59.6181 c -2.2787,2.3309 6.5889,13.0887 11.6112,9.2254 6.8585,-5.2758 -8.1528,-12.7631 -11.6112,-9.2254 z" />
    </g>
    <g style="display:inline;opacity:1;mix-blend-mode:normal" id="g14">
      <path
        d="m -7.046633,-65.192383 c -0.4795769,-0.01819 -1.1093434,0.06048 -1.6190227,0.05684 -1.7167623,-0.01226 -3.5144653,0.02252 -5.4534143,0.190687 -2.091867,0.204149 -4.251774,0.531829 -6.368086,0.999938 0.09712,-0.0036 0.16971,3.53e-4 0.189652,0.0016 0.02566,0.0014 -0.03252,-0.0016 -0.106453,0.0031 l -0.280603,0.03927 c 0.06585,-0.01483 0.131458,-0.02934 0.197404,-0.04392 -0.02123,7.77e-4 -0.04333,0.002 -0.06666,0.0036 -0.0052,3.73e-4 -0.0098,0.0012 -0.01499,0.0016 -0.545813,0.114256 -1.202597,0.16956 -1.713591,0.29714 -0.147923,0.03693 -0.35136,0.04779 -0.496093,0.08578 -0.480473,0.126119 -0.934806,0.256028 -1.364258,0.388606 a 1.7829201,1.776403 26.711954 0 0 -0.286804,0.04858 c -1.975736,0.50261 -3.704387,1.073008 -5.229655,1.719275 -1.525627,0.64642 -2.848385,1.368817 -4.011642,2.175578 -1.164023,0.807296 -2.154975,1.689446 -3.023588,2.64635 -0.866653,0.954749 -1.59978,1.971492 -2.25671,3.039091 -1.29296,2.101231 -2.335253,4.484832 -3.480407,6.982519 -1.159796,2.52962 -2.473566,5.291764 -4.360458,8.349362 -1.039306,1.683704 -2.328999,3.092397 -3.790466,4.406449 -1.477574,1.328535 -3.074535,2.51213 -4.76405,3.803385 -1.662209,1.270384 -3.391657,2.628955 -4.976441,4.224549 -1.596146,1.607032 -3.059267,3.467094 -4.208012,5.765023 -1.337767,2.67671 -2.125285,5.329706 -2.440677,7.950419 -0.315404,2.6208907 -0.155325,5.1792774 0.373103,7.6641313 0.527985,2.4827359 1.421987,4.88544489 2.568319,7.2021444 1.146639,2.317305 2.551398,4.5595254 4.109827,6.7231038 3.112947,4.3217145 6.888478,8.3952395 10.540442,12.1672155 3.69855,3.820094 7.214297,7.277262 9.993705,10.515121 2.751592,3.205364 4.916062,7.066881 7.026961,11.120251 2.08556,4.004719 4.14182,8.248367 6.609933,11.92072 1.246996,1.855429 2.622187,3.602317 4.197159,5.141805 1.580117,1.544517 3.361283,2.879696 5.413623,3.905705 2.057437,1.028547 4.356179,1.730795 6.9499638,2.036051 2.5930611,0.305163 5.4603022,0.211681 8.65580246,-0.329696 3.40008294,-0.575625 6.36944234,-1.915513 9.01960444,-3.692797 2.6489003,-1.776437 4.9885793,-3.996824 7.1313473,-6.337598 2.142648,-2.340646 4.150986,-4.873542 6.06733,-7.239868 1.949066,-2.40673 3.811765,-4.652594 5.750554,-6.56239 1.046163,-1.030677 2.404409,-2.116492 4.016292,-3.261817 1.611019,-1.14471 3.44142,-2.325055 5.412073,-3.54707 3.94968,-2.449222 8.419912,-5.038636 12.678296,-7.785571 4.264479,-2.750867 8.367793,-5.692491 11.51971,-8.846489 1.586679,-1.587726 2.961856,-3.25813 3.997689,-5.016748 1.041274,-1.767867 1.752799,-3.64719 1.973006,-5.6316975 0.308433,-2.7781592 0.01061,-5.3913605 -0.612366,-7.86515303 -0.623906,-2.47747477 -1.581759,-4.84107317 -2.59519,-7.09310707 -1.02538,-2.2785857 -2.12107,-4.4778504 -3.067513,-6.6486894 -0.957514,-2.19623 -1.752306,-4.334129 -2.217953,-6.50658 -0.158667,-0.740606 -0.228884,-1.553257 -0.227376,-2.439128 0.0015,-0.889667 0.07523,-1.833943 0.195854,-2.829801 0.242048,-1.998407 0.67103,-4.162657 1.015958,-6.364986 0.345435,-2.205571 0.613483,-4.504745 0.475424,-6.721554 -0.07,-1.123942 -0.245154,-2.244105 -0.575159,-3.334163 -0.332611,-1.098664 -0.819972,-2.158541 -1.505335,-3.152779 -0.779032,-1.130107 -1.766372,-2.042779 -2.87631,-2.780192 -1.111861,-0.738686 -2.35262,-1.305658 -3.650423,-1.746664 -2.600955,-0.88383 -5.562717,-1.3048 -8.454264,-1.526005 -2.922566,-0.223576 -5.931874,-0.252124 -8.546249,-0.29869 -1.338057,-0.02383 -2.578762,-0.05208 -3.708817,-0.11007 -1.13982,-0.0585 -2.124716,-0.145306 -2.944007,-0.27802 -2.593322,-0.419849 -4.809238,-1.047532 -6.814571,-1.810225 -2.03551,-0.774171 -3.886037,-1.700184 -5.713346,-2.718697 -3.744722,-2.087247 -7.4496937,-4.594001 -12.2834881,-6.91224 -1.1618204,-0.557826 -2.39758458,-0.954161 -3.65249021,-1.240234 -0.004887,-0.0011 -0.009582,-0.003 -0.0144694,-0.0041 l -0.001034,0.0031 c -0.0285977,-0.0092 -0.0578457,-0.01815 -0.0873332,-0.02739 -0.65528319,-0.205218 -1.53187999,-0.411958 -2.70371089,-0.577226 -0.9448473,-0.133255 -2.050888,-0.23514 -3.3202108,-0.288871 -0.040046,-0.0017 -0.080552,-0.0036 -0.1209229,-0.0052 -0.024745,-9.8e-4 -0.049582,-0.0016 -0.074414,-0.0026 z m -18.745626,2.78381 c -1.6e-5,3.71e-4 -0.02927,0.01157 -0.0925,0.05271 a 1.7385508,1.6784183 16.215541 0 1 0.06925,-0.04341 c 0.01531,-0.0061 0.02326,-0.0095 0.02325,-0.0093 z m -1.927531,0.681095 c -0.01477,0.008 -0.02932,0.01583 -0.04393,0.02377 l -0.0041,-0.01344 c 0.01582,-0.0033 0.03188,-0.007 0.04806,-0.01033 z m 22.8818077,0.542603 c 0.052961,0.0037 0.094217,0.0021 0.100769,0.0021 -0.00327,3.67e-4 -0.013256,0.0018 -0.030489,0.0036 -0.023384,-0.0018 -0.04687,-0.0039 -0.07028,-0.0057 z"
        style="display:inline;opacity:1;fill:#3e3e3e;stroke-linejoin:round" id="path4" />
    </g>
  </g>
</svg>
